<svg width="60" height="60" viewBox="0 0 60 60" fill="none" xmlns="http://www.w3.org/2000/svg">
<g clip-path="url(#clip0_73:26)">
<path d="M60 30C60 13.4315 46.5685 0 30 0C13.4315 0 0 13.4315 0 30C0 46.5685 13.4315 60 30 60C46.5685 60 60 46.5685 60 30Z" fill="#666666"/>
<path d="M44.8016 22.7633C44.3216 22.5981 43.8242 22.4417 43.3121 22.2938C43.3963 21.9503 43.4735 21.6113 43.5422 21.278C44.6697 15.8048 43.9325 11.3955 41.4151 9.94381C39.0012 8.55182 35.0536 10.0032 31.0666 13.4729C30.6832 13.8066 30.2988 14.1598 29.9144 14.5301C29.6584 14.2851 29.4028 14.0484 29.1477 13.822C24.9693 10.1119 20.781 8.54844 18.2662 10.0043C15.8545 11.4004 15.1404 15.5455 16.1553 20.7324C16.2533 21.2335 16.3679 21.7451 16.4975 22.2653C15.9048 22.4335 15.3325 22.6129 14.785 22.8037C9.88616 24.5117 6.75757 27.1884 6.75757 29.9649C6.75757 32.8326 10.1161 35.7088 15.2186 37.4528C15.6212 37.5904 16.0391 37.7206 16.4697 37.8441C16.3299 38.4067 16.2083 38.958 16.1063 39.4957C15.1385 44.5927 15.8943 48.6398 18.2993 50.0271C20.7837 51.4597 24.953 49.9871 29.0129 46.4383C29.3337 46.1578 29.6558 45.8603 29.9784 45.5486C30.3965 45.9511 30.8141 46.3323 31.2292 46.6897C35.1617 50.0737 39.0457 51.4402 41.4485 50.0491C43.9304 48.6123 44.7369 44.2648 43.6898 38.9751C43.6098 38.5711 43.5168 38.1584 43.4122 37.7384C43.705 37.6518 43.9924 37.5624 44.2728 37.4696C49.5772 35.7121 53.0285 32.8708 53.0285 29.9649C53.0285 27.1784 49.799 24.4836 44.8016 22.7633Z" fill="white"/>
<path d="M43.6512 35.5933C43.3983 35.677 43.1387 35.758 42.8741 35.8366C42.2885 33.9827 41.4982 32.0113 40.531 29.9746C41.454 27.9863 42.2137 26.0402 42.7829 24.1984C43.2563 24.3354 43.7157 24.4799 44.1584 24.6323C48.4402 26.1063 51.0521 28.2857 51.0521 29.9649C51.0521 31.7537 48.2314 34.0757 43.6512 35.5933ZM41.7509 39.359C42.214 41.698 42.2801 43.8128 41.9734 45.4659C41.6977 46.9514 41.1435 47.9417 40.4583 48.3384C39.0001 49.1824 35.8817 48.0854 32.5187 45.1913C32.1331 44.8596 31.7448 44.5054 31.3551 44.1304C32.659 42.7044 33.962 41.0468 35.2337 39.2057C37.4707 39.0073 39.584 38.6828 41.5004 38.2397C41.5948 38.6206 41.6787 38.994 41.7509 39.359ZM22.5325 48.1926C21.108 48.6957 19.9732 48.7101 19.2872 48.3147C17.8277 47.4728 17.221 44.2233 18.0487 39.8644C18.1435 39.3653 18.2563 38.8524 18.3863 38.3283C20.2818 38.7474 22.3796 39.049 24.6218 39.2308C25.9022 41.0323 27.2429 42.6882 28.594 44.1381C28.2988 44.423 28.0047 44.6943 27.7123 44.95C25.9171 46.5193 24.1181 47.6326 22.5325 48.1926ZM15.8581 35.5823C13.6018 34.8112 11.7386 33.8089 10.4614 32.7153C9.3138 31.7324 8.73438 30.7567 8.73438 29.9649C8.73438 28.2801 11.2463 26.131 15.4358 24.6703C15.9442 24.493 16.4763 24.3261 17.0285 24.1692C17.6075 26.0526 18.3671 28.0217 19.2837 30.013C18.3552 32.0339 17.5849 34.0344 17.0002 35.94C16.6065 35.8268 16.2251 35.7077 15.8581 35.5823ZM18.0955 20.3528C17.2258 15.9088 17.8034 12.5563 19.2567 11.7151C20.8047 10.8189 24.2277 12.0967 27.8355 15.3001C28.0661 15.5049 28.2976 15.7192 28.5297 15.9409C27.1854 17.3844 25.857 19.0279 24.5881 20.8188C22.4118 21.0204 20.3288 21.3444 18.4135 21.7783C18.2931 21.294 18.1864 20.8181 18.0955 20.3528ZM38.0547 25.2813C37.5968 24.4904 37.1268 23.7183 36.6476 22.9673C38.124 23.1539 39.5384 23.4016 40.8667 23.7048C40.468 24.9829 39.9709 26.3193 39.3857 27.6892C38.9661 26.8923 38.5221 26.0888 38.0547 25.2813ZM29.9154 17.3536C30.8271 18.3414 31.7402 19.4442 32.6382 20.6407C31.7332 20.598 30.817 20.5757 29.8932 20.5757C28.9782 20.5757 28.0688 20.5975 27.1694 20.6395C28.0684 19.4541 28.9894 18.3527 29.9154 17.3536ZM21.7238 25.2949C21.2665 26.088 20.8309 26.8872 20.4177 27.6876C19.8421 26.3226 19.3496 24.9801 18.9474 23.6839C20.2676 23.3884 21.6754 23.1469 23.1423 22.9637C22.6564 23.7217 22.1824 24.4996 21.7238 25.2948V25.2949ZM23.1845 37.1072C21.6689 36.938 20.24 36.7089 18.9202 36.4216C19.3288 35.1022 19.8321 33.7312 20.42 32.3367C20.8342 33.1366 21.2716 33.936 21.7317 34.7308H21.7318C22.2005 35.5406 22.6861 36.3336 23.1845 37.1072ZM29.9701 42.7157C29.0331 41.7049 28.0987 40.5867 27.1861 39.384C28.072 39.4188 28.9752 39.4366 29.8932 39.4366C30.8364 39.4366 31.7687 39.4153 32.6864 39.3744C31.7854 40.5988 30.8756 41.7187 29.9701 42.7157ZM39.4047 32.2655C40.0231 33.6752 40.5444 35.039 40.9584 36.336C39.6168 36.642 38.1683 36.8886 36.6422 37.0717C37.1224 36.3106 37.5967 35.5252 38.0625 34.7173C38.534 33.8999 38.9815 33.0813 39.4047 32.2655ZM36.3503 33.7297C35.627 34.9839 34.8844 36.181 34.1307 37.3112C32.7576 37.4093 31.339 37.4599 29.8932 37.4599C28.4534 37.4599 27.0527 37.4152 25.704 37.3276C24.9197 36.1827 24.161 34.982 23.4423 33.7404H23.4424C22.7256 32.5024 22.066 31.2539 21.4682 30.0124C22.0657 28.768 22.7237 27.5181 23.4364 26.2822L23.4363 26.2824C24.1509 25.0434 24.9029 23.8484 25.6798 22.7107C27.056 22.6067 28.4671 22.5524 29.8931 22.5524H29.8932C31.3257 22.5524 32.7387 22.607 34.1144 22.712C34.8795 23.8414 35.6264 25.0324 36.3438 26.2717C37.0694 27.525 37.7358 28.7666 38.3385 29.9843C37.7376 31.2229 37.0727 32.477 36.3503 33.7297ZM40.428 11.6563C41.9775 12.5499 42.58 16.1535 41.6065 20.879C41.5444 21.1804 41.4744 21.4876 41.3985 21.7989C39.4789 21.356 37.3943 21.0263 35.2117 20.8216C33.9403 19.011 32.6228 17.365 31.3003 15.94C31.6558 15.598 32.0109 15.2717 32.3645 14.964C35.7805 11.9912 38.9732 10.8174 40.428 11.6563Z" fill="#666666"/>
<path d="M29.893 25.833C32.175 25.833 34.0249 27.6828 34.0249 29.9648C34.0249 32.2468 32.175 34.0967 29.893 34.0967C27.6111 34.0967 25.7612 32.2468 25.7612 29.9648C25.7612 27.6828 27.6111 25.833 29.893 25.833Z" fill="white"/>
</g>
<defs>
<clipPath id="clip0_73:26">
<rect width="60" height="60" fill="white"/>
</clipPath>
</defs>
</svg>
